# xmcd CD database file
#
# Track frame offsets:
#	150
#	18302
#	38355
#	55070
#	77050
#	98902
#	112507
#	123702
#	138605
#	154827
#	175927
#
# Disc length: 2530 seconds
#
# Revision: 0
# Processed by: cddbd v1.5.2PL0 Copyright (c) Steve Scherf et al.
# Submitted via: CDex 1.51
#
DISCID=8109e00b
DTITLE=Tumppi Varonen - Takaisin Luontoon
DYEAR=2003
DGENRE=New Age
TTITLE0=Kabaree
TTITLE1=Poika joka tahtoo lent‰‰
TTITLE2=Peilikuva
TTITLE3=Taivaaseen j‰lleen
TTITLE4=Ne valvoo
TTITLE5=Onko politiikalla
TTITLE6=Se pieni ero
TTITLE7=Naiset ja miehet
TTITLE8=Mun maailmani
TTITLE9=Takaisin luontoon
TTITLE10=Bonus
EXTD=YEAR: 2003
EXTT0=
EXTT1=
EXTT2=
EXTT3=
EXTT4=
EXTT5=
EXTT6=
EXTT7=
EXTT8=
EXTT9=
EXTT10=
PLAYORDER=
